<svg xmlns="http://www.w3.org/2000/svg" xmlns:xlink="http://www.w3.org/1999/xlink" width="300" height="300" viewBox="0 0 300 300"><defs><clipPath id="bfb66cb2-e056-4818-ac53-673ee8734d56"><rect id="fce95435-6b76-4ba3-9937-6145bf6b452f" data-name="SVGID" x="78.05" y="15.05" width="142.23" height="182.35" transform="translate(255.38 -42.94) rotate(90)" style="fill:none"/></clipPath></defs><g style="isolation:isolate"><g id="f62ae33f-ad40-45fc-91b3-00942fa7c6d5" data-name="Layer 1"><g style="opacity:0.30000000000000004"><path d="M272.56,268.39H27.44A27.45,27.45,0,0,1,0,241L5.3,59.05c0-15.15,11.85-27.44,26.47-27.44H268.23c14.62,0,26.47,12.29,26.47,27.44L300,241A27.45,27.45,0,0,1,272.56,268.39Z" style="opacity:0.1"/><path d="M272.23,267.65H27.77A26.83,26.83,0,0,1,.94,240.82L6.21,59.18c0-14.82,11.58-26.83,25.88-26.83H267.91c14.3,0,25.88,12,25.88,26.83l5.27,181.64A26.83,26.83,0,0,1,272.23,267.65Z" style="opacity:0.14285714365541957"/><path d="M271.9,266.91H28.1A26.22,26.22,0,0,1,1.88,240.68L7.11,59.32c0-14.49,11.33-26.23,25.3-26.23H267.59c14,0,25.3,11.74,25.3,26.23l5.23,181.36A26.22,26.22,0,0,1,271.9,266.91Z" style="opacity:0.18571428642853333"/><path d="M271.57,266.17H28.43A25.62,25.62,0,0,1,2.81,240.55L8,59.45C8,45.3,19.08,33.83,32.73,33.83H267.27C280.92,33.83,292,45.3,292,59.45l5.21,181.1A25.62,25.62,0,0,1,271.57,266.17Z" style="opacity:0.22857142920164708"/><path d="M271.24,265.43H28.76a25,25,0,0,1-25-25L8.92,59.58c0-13.81,10.8-25,24.13-25H267c13.33,0,24.13,11.2,24.13,25l5.17,180.84A25,25,0,0,1,271.24,265.43Z" style="opacity:0.27142857197476083"/><path d="M270.91,264.69H29.09a24.41,24.41,0,0,1-24.4-24.4L9.83,59.71c0-13.47,10.53-24.4,23.53-24.4H266.64c13,0,23.53,10.93,23.53,24.4l5.14,180.58A24.41,24.41,0,0,1,270.91,264.69Z" style="opacity:0.3142857147478746"/><path d="M270.58,264H29.42a23.8,23.8,0,0,1-23.79-23.8l5.1-180.3c0-13.14,10.28-23.8,23-23.8H266.32c12.67,0,22.95,10.66,22.95,23.8l5.1,180.3A23.8,23.8,0,0,1,270.58,264Z" style="opacity:0.3571428575209883"/><path d="M270.25,263.21H29.75A23.18,23.18,0,0,1,6.57,240L11.64,60c0-12.81,10-23.19,22.36-23.19H266c12.35,0,22.36,10.38,22.36,23.19l5.07,180A23.18,23.18,0,0,1,270.25,263.21Z" style="opacity:0.4000000002941021"/><path d="M269.92,262.47H30.08A22.57,22.57,0,0,1,7.51,239.89l5-179.78c0-12.47,9.75-22.58,21.78-22.58H265.68c12,0,21.78,10.11,21.78,22.58l5,179.78A22.57,22.57,0,0,1,269.92,262.47Z" style="opacity:0.44285714306721585"/><path d="M269.59,261.73H30.41a22,22,0,0,1-22-22l5-179.52c0-12.13,9.48-22,21.19-22H265.36c11.71,0,21.19,9.84,21.19,22l5,179.52A22,22,0,0,1,269.59,261.73Z" style="opacity:0.4857142858403296"/><path d="M269.26,261H30.74A21.36,21.36,0,0,1,9.38,239.62l5-179.24C14.35,48.58,23.58,39,35,39H265c11.38,0,20.61,9.56,20.61,21.36l5,179.24A21.36,21.36,0,0,1,269.26,261Z" style="opacity:0.5285714286134434"/><path d="M268.93,260.24H31.07a20.75,20.75,0,0,1-20.75-20.75l4.94-179c0-11.46,9-20.75,20-20.75H264.72c11.06,0,20,9.29,20,20.75l4.94,179A20.75,20.75,0,0,1,268.93,260.24Z" style="opacity:0.5714285713865571"/><path d="M268.6,259.5H31.4a20.14,20.14,0,0,1-20.14-20.14l4.9-178.72c0-11.12,8.7-20.14,19.43-20.14H264.41c10.73,0,19.43,9,19.43,20.14l4.9,178.72A20.14,20.14,0,0,1,268.6,259.5Z" style="opacity:0.6142857141596709"/><path d="M268.27,258.76H31.73A19.53,19.53,0,0,1,12.2,239.23L17.07,60.77c0-10.79,8.43-19.53,18.84-19.53H264.09c10.41,0,18.84,8.74,18.84,19.53l4.87,178.46A19.53,19.53,0,0,1,268.27,258.76Z" style="opacity:0.6571428569327846"/><path d="M267.94,258H32.06a18.93,18.93,0,0,1-18.93-18.93L18,60.91C18,50.45,26.15,42,36.23,42H263.77C273.85,42,282,50.45,282,60.91l4.84,178.18A18.93,18.93,0,0,1,267.94,258Z" style="opacity:0.6999999997058983"/><path d="M267.61,257.28H32.39A18.32,18.32,0,0,1,14.07,239L18.88,61c0-10.12,7.91-18.32,17.67-18.32h226.9c9.76,0,17.67,8.2,17.67,18.32L285.93,239A18.32,18.32,0,0,1,267.61,257.28Z" style="opacity:0.742857142479012"/><path d="M267.28,256.54H32.72A17.71,17.71,0,0,1,15,238.83L19.78,61.17c0-9.78,7.65-17.71,17.09-17.71H263.13c9.44,0,17.09,7.93,17.09,17.71L285,238.83A17.71,17.71,0,0,1,267.28,256.54Z" style="opacity:0.7857142852521257"/><path d="M267,255.8H33.05A17.11,17.11,0,0,1,16,238.7L20.69,61.3c0-9.44,7.38-17.1,16.5-17.1H262.81c9.12,0,16.5,7.66,16.5,17.1l4.74,177.4A17.11,17.11,0,0,1,267,255.8Z" style="opacity:0.8285714280252395"/><path d="M266.62,255.06H33.38a16.49,16.49,0,0,1-16.49-16.5l4.7-177.12c0-9.11,7.13-16.5,15.91-16.5h225c8.78,0,15.91,7.39,15.91,16.5l4.7,177.12A16.49,16.49,0,0,1,266.62,255.06Z" style="opacity:0.8714285707983532"/><path d="M266.29,254.32H33.71a15.88,15.88,0,0,1-15.88-15.89L22.5,61.57c0-8.78,6.86-15.89,15.32-15.89H262.18c8.46,0,15.32,7.11,15.32,15.89l4.67,176.86A15.88,15.88,0,0,1,266.29,254.32Z" style="opacity:0.9142857135714669"/><path d="M266,253.58H34A15.28,15.28,0,0,1,18.76,238.3L23.4,61.7A15,15,0,0,1,38.14,46.42H261.86A15,15,0,0,1,276.6,61.7l4.64,176.6A15.28,15.28,0,0,1,266,253.58Z" style="opacity:0.9571428563445806"/><path d="M265.63,252.84H34.37A14.67,14.67,0,0,1,19.7,238.17L24.31,61.83A14.41,14.41,0,0,1,38.46,47.16H261.54a14.41,14.41,0,0,1,14.15,14.67l4.61,176.34A14.67,14.67,0,0,1,265.63,252.84Z"/></g><path d="M19.7,228.32V43A11.39,11.39,0,0,1,31.09,31.61H268.91A11.39,11.39,0,0,1,280.3,43V229.66" style="fill:#d1d1d1;stroke:#231f20;stroke-miterlimit:10;stroke-width:7.38805955415778px"/><path d="M242,197.89H56.36a8.35,8.35,0,1,0,0,16.7H242a8.35,8.35,0,0,0,0-16.7Z" style="fill:#b3b3b3;mix-blend-mode:multiply;opacity:0.5"/><g style="clip-path:url(#bfb66cb2-e056-4818-ac53-673ee8734d56)"><rect x="51.48" y="7.72" width="195.36" height="195.36" style="fill:#e74a99"/><polygon points="246.84 203.07 51.48 203.07 246.84 7.72 246.84 203.07" style="fill:#00aeef"/><path d="M149.32,67.28c12.15,0,16.87,2.07,19,3.14,2,1,3.13,4.7,3.72,7.06s-.39,3.33-2,4.9c-1.28,1.28-6,4.28-7.65,5.32a1.26,1.26,0,0,0-.59,1c0,3-.18,14.92-.18,15.77,0,2.35,10.77,16.66,15.09,23.13,3,4.53,7.05,10.39,3.72,17.83C177.58,152,167,159,149.32,159H149c-17.64,0-28.26-7-31.16-13.53-3.33-7.44.7-13.3,3.72-17.83,4.32-6.47,15.1-20.78,15.1-23.13,0-.85-.15-12.77-.19-15.77a1.26,1.26,0,0,0-.59-1c-1.65-1-6.37-4-7.65-5.32-1.57-1.57-2.55-2.55-2-4.9S128,71.4,130,70.42c2.14-1.07,6.86-3.14,19-3.14h.32m0-2.74H149c-12,0-17.29,2-20.24,3.43-2.26,1.13-3.95,4-5.15,8.84-1,3.86,1,5.8,2.68,7.51a59.28,59.28,0,0,0,7.44,5.27c.09,6.47.17,13.28.18,14.71-.69,2-6.34,10-9.74,14.8-1.87,2.65-3.64,5.16-4.89,7l-.14.2c-3.07,4.6-7.7,11.56-3.8,20.28,1.83,4.09,5.86,7.83,11.34,10.53,6.13,3,13.85,4.61,22.32,4.61h.32c8.47,0,16.19-1.59,22.32-4.61,5.48-2.7,9.51-6.44,11.34-10.53,3.9-8.72-.73-15.67-3.8-20.28l-.14-.2c-1.25-1.87-3-4.38-4.89-7-3.4-4.81-9.05-12.79-9.74-14.8,0-1.42.09-8.24.18-14.71A59.28,59.28,0,0,0,172,84.32c1.71-1.71,3.65-3.65,2.68-7.51-1.2-4.82-2.89-7.71-5.15-8.84-2.95-1.47-8.24-3.43-20.24-3.43Z" style="fill:#fff"/><path d="M162.45,121.38a9.78,9.78,0,0,0-6.08,2.55c-2.74,2.54-3.13,4.31-3.13,5.48a2,2,0,0,0,2.15,2.16c1.57,0,2.16-1,3.14-2s2-2.55,4.31-2.55,5.68,3.53,7.84,3.53,2.55-1.18,2.55-2.16c0-2-3.53-7.05-10.78-7.05" style="fill:#fff"/><path d="M135.79,121.38a9.76,9.76,0,0,1,6.08,2.55c2.74,2.54,3.14,4.31,3.14,5.48a2,2,0,0,1-2.16,2.16c-1.57,0-2.16-1-3.14-2s-2-2.55-4.31-2.55-5.68,3.53-7.84,3.53-2.54-1.18-2.54-2.16c0-2,3.52-7.05,10.77-7.05" style="fill:#fff"/><path d="M136.19,74a67.59,67.59,0,0,0,12.74,1.17A75,75,0,0,0,162.06,74a40,40,0,0,1-25.87,0Z" style="fill:#fff"/><g style="opacity:0.5"><path d="M149,159c-17.64,0-28.26-7-31.16-13.53-3.33-7.44.7-13.3,3.72-17.83,4.32-6.47,15.1-20.78,15.1-23.13,0-.85-.15-12.77-.19-15.77a1.26,1.26,0,0,0-.59-1c-1.65-1-6.37-4-7.65-5.32-1.57-1.57-2.55-2.55-2-4.9S128,71.4,130,70.42c2.14-1.07,6.86-3.14,19-3.14h.32c12.15,0,16.87,2.07,19,3.14,2,1,3.13,4.7,3.72,7.06s-.39,3.33-2,4.9c-1.28,1.28-6,4.28-7.65,5.32a1.26,1.26,0,0,0-.59,1c0,3-.18,14.92-.18,15.77,0,2.35,10.77,16.66,15.09,23.13,3,4.53,7.05,10.39,3.72,17.83C177.58,152,167,159,149.32,159Z" style="fill:#fff"/></g><path d="M166.69,39.64a3.14,3.14,0,0,0-1.82-2.57c-1.41-.56-3.1.18-4,.71a4.81,4.81,0,0,0-2.82-2,3.84,3.84,0,0,0-4.15,3.82c.12,3.37,4.68,7,4.87,7.2l.3.24.37-.1C159.75,46.82,167.68,44.68,166.69,39.64Z" style="fill:#fff"/><path d="M162.92,59a4.17,4.17,0,0,0-3.4,0,4,4,0,0,0-2.05-2,3.18,3.18,0,0,0-3.92,2.58c-.36,2.79,2.9,6.42,3,6.57l.21.24.32,0c.29,0,7.1-.72,7-5A2.61,2.61,0,0,0,162.92,59Z" style="fill:#fff"/><path d="M144.7,46.89a4.24,4.24,0,0,0-3.93-1.55c-2,.4-3.36,2.46-4,3.73a6.4,6.4,0,0,0-4.65-.21,4.59,4.59,0,0,0-2.58,3.33,4.68,4.68,0,0,0,.7,4c2.59,3.7,10.4,4.5,10.73,4.54l.51.05.35-.38C142.12,60.05,149.49,51.86,144.7,46.89Z" style="fill:#fff"/></g><path d="M280.3,227.73v19.72a4.3,4.3,0,0,1-4.29,4.3H25.87a6.18,6.18,0,0,1-6.17-6.18V227.73" style="fill:#898989;stroke:#231f20;stroke-miterlimit:10;stroke-width:7.38805955415778px"/><rect x="23.51" y="224.66" width="252.99" height="3.07" style="fill:#dbdbdb"/><path d="M56.36,200.58H242a8.35,8.35,0,0,1,8.23,7,8.58,8.58,0,0,0,.12-1.35,8.36,8.36,0,0,0-8.35-8.35H56.36A8.36,8.36,0,0,0,48,206.24a8.58,8.58,0,0,0,.12,1.35A8.35,8.35,0,0,1,56.36,200.58Z" style="fill:#dbdbdb"/><rect x="57.99" y="177.33" width="182.35" height="1.36" style="fill:#231f20"/><rect x="48.01" y="31.61" width="9.97" height="147.09" style="fill:#231f20"/><rect x="240.34" y="31.61" width="9.97" height="147.09" style="fill:#231f20"/><rect x="34.31" y="233.71" width="231.37" height="9.85" rx="3.03" style="fill:#4c4c4c"/></g></g></svg>